# xmcd
#
# Track frame offsets: 
#        150
#        20025
#        38515
#        68327
#        90452
#        114482
#        129825
#        151080
#        168477
#        188495
#
# Disc length: 2877 seconds
#
# Revision: 0
# Processed by: cddbd v1.5.2PL0 Copyright (c) Steve Scherf et al.
# Submitted via: ExactAudioCopy v1.0b3
#
DISCID=680b3b0a
DTITLE=La Suong Suong, Minh Thuan - Co Nhau Trong Doi
DYEAR=1995
DGENRE=
TTITLE0=Tuong tu trong mua
TTITLE1=Cho nao khong mua
TTITLE2=Lua chon
TTITLE3=Tinh bang gia
TTITLE4=Con yeu anh
TTITLE5=Nuoc song chay mai
TTITLE6=Man ma
TTITLE7=Tin don
TTITLE8=Minh Thuan - Mai mai quanh hiu
TTITLE9=Co nhau trong doi
EXTD=
EXTT0=
EXTT1=
EXTT2=
EXTT3=
EXTT4=
EXTT5=
EXTT6=
EXTT7=
EXTT8=
EXTT9=
PLAYORDER=
